<svg xmlns="http://www.w3.org/2000/svg" width="60" height="38" viewBox="0 0 60 38">
  <metadata><?xpacket begin="﻿" id="W5M0MpCehiHzreSzNTczkc9d"?>
<x:xmpmeta xmlns:x="adobe:ns:meta/" x:xmptk="Adobe XMP Core 5.6-c138 79.159824, 2016/09/14-01:09:01        ">
   <rdf:RDF xmlns:rdf="http://www.w3.org/1999/02/22-rdf-syntax-ns#">
      <rdf:Description rdf:about=""/>
   </rdf:RDF>
</x:xmpmeta>
                                                                                                    
                                                                                                    
                                                                                                    
                                                                                                    
                                                                                                    
                                                                                                    
                                                                                                    
                                                                                                    
                                                                                                    
                                                                                                    
                                                                                                    
                                                                                                    
                                                                                                    
                                                                                                    
                                                                                                    
                                                                                                    
                                                                                                    
                                                                                                    
                                                                                                    
                                                                                                    
                           
<?xpacket end="w"?></metadata>
<defs>
    <style>
      .cls-1 {
        fill: #1f1b1b;
        fill-rule: evenodd;
      }
    </style>
  </defs>
  <path class="cls-1" d="M1365.48,2652.06h-1.17v-5.34a4.721,4.721,0,0,0-4.68-4.75,4.629,4.629,0,0,0-2.47.71,4.709,4.709,0,0,0-4.57-3.68h0a4.729,4.729,0,0,0-4.69,4.75v8.31h-17.8v-8.31a4.685,4.685,0,0,0-9.26-1.07,4.621,4.621,0,0,0-2.46-.71,4.723,4.723,0,0,0-4.69,4.75v5.34h-1.17a3.547,3.547,0,0,0-3.52,3.56v4.76a3.547,3.547,0,0,0,3.52,3.56h1.17v5.34a4.723,4.723,0,0,0,4.69,4.75,4.621,4.621,0,0,0,2.46-.71,4.709,4.709,0,0,0,4.57,3.68h0a4.729,4.729,0,0,0,4.69-4.75v-8.31h17.8v8.31a4.685,4.685,0,0,0,9.26,1.07,4.629,4.629,0,0,0,2.47.71,4.721,4.721,0,0,0,4.68-4.75v-5.34h1.17a3.547,3.547,0,0,0,3.52-3.56v-4.76A3.547,3.547,0,0,0,1365.48,2652.06Zm-51.79,9.5h-1.17a1.182,1.182,0,0,1-1.18-1.18v-4.76a1.182,1.182,0,0,1,1.18-1.18h1.17v7.12Zm7.03,7.72a2.356,2.356,0,0,1-.69,1.68,2.313,2.313,0,0,1-1.65.7,2.367,2.367,0,0,1-2.35-2.38v-22.56a2.345,2.345,0,1,1,4.69,0v22.56Zm7.03,2.97a2.356,2.356,0,0,1-2.34,2.37h0a2.358,2.358,0,0,1-2.35-2.37v-28.5a2.345,2.345,0,1,1,4.69,0v28.5Zm20.15-15.44h-8.2a1.19,1.19,0,0,0,0,2.38h8.2v2.37h-17.81v-7.12h17.81v2.37Zm7.04,15.44a2.345,2.345,0,1,1-4.69,0v-14.19a0.22,0.22,0,0,1-.01.08v-0.28a0.22,0.22,0,0,1,.01.08v-14.19a2.356,2.356,0,0,1,2.34-2.37h0a2.358,2.358,0,0,1,2.35,2.37v28.5Zm7.03-2.97a2.345,2.345,0,1,1-4.69,0v-22.56a2.345,2.345,0,1,1,4.69,0v22.56Zm4.69-8.9a1.182,1.182,0,0,1-1.18,1.18h-1.17v-7.12h1.17a1.182,1.182,0,0,1,1.18,1.18v4.76Z" transform="translate(-1309 -2639)"/>
</svg>
