<svg xmlns="http://www.w3.org/2000/svg" width="59" height="60" viewBox="0 0 59 60">
  <metadata><?xpacket begin="﻿" id="W5M0MpCehiHzreSzNTczkc9d"?>
<x:xmpmeta xmlns:x="adobe:ns:meta/" x:xmptk="Adobe XMP Core 5.6-c138 79.159824, 2016/09/14-01:09:01        ">
   <rdf:RDF xmlns:rdf="http://www.w3.org/1999/02/22-rdf-syntax-ns#">
      <rdf:Description rdf:about=""/>
   </rdf:RDF>
</x:xmpmeta>
                                                                                                    
                                                                                                    
                                                                                                    
                                                                                                    
                                                                                                    
                                                                                                    
                                                                                                    
                                                                                                    
                                                                                                    
                                                                                                    
                                                                                                    
                                                                                                    
                                                                                                    
                                                                                                    
                                                                                                    
                                                                                                    
                                                                                                    
                                                                                                    
                                                                                                    
                                                                                                    
                           
<?xpacket end="w"?></metadata>
<defs>
    <style>
      .cls-1 {
        fill: #1f1b1b;
        fill-rule: evenodd;
      }
    </style>
  </defs>
  <path class="cls-1" d="M959.5,2639.49a5.865,5.865,0,1,1,5.9-5.86A5.888,5.888,0,0,1,959.5,2639.49Zm0-9.78a3.915,3.915,0,1,0,3.933,3.92A3.933,3.933,0,0,0,959.5,2629.71Zm7.038,16.96a0.976,0.976,0,0,1-.623-1.73,0.847,0.847,0,0,0,.227-0.27l9.389-16.7a0.988,0.988,0,0,0,.105-0.76,0.969,0.969,0,0,0-.459-0.59,0.984,0.984,0,0,0-1.342.36l-8.232,14.64a0.992,0.992,0,0,1-1.338.38,0.973,0.973,0,0,1-.379-1.33l8.239-14.66a2.964,2.964,0,0,1,4.036-1.08,2.917,2.917,0,0,1,1.08,4l-9.388,16.71a2.877,2.877,0,0,1-.692.81A0.977,0.977,0,0,1,966.538,2646.67ZM938.776,2677a2.959,2.959,0,0,1-2.055-.83,2.924,2.924,0,0,1-.052-4.15l10.734-11.26a0.981,0.981,0,0,1,1.39-.03,0.97,0.97,0,0,1,.037,1.38l-10.744,11.27a0.979,0.979,0,1,0,1.4,1.37l10.842-11.37a0.982,0.982,0,0,1,1.427,1.35L940.9,2676.11A2.987,2.987,0,0,1,938.776,2677Zm14.008-30.33a0.98,0.98,0,0,1-.625-0.22,3.007,3.007,0,0,1-.677-0.8l-9.4-16.73a2.934,2.934,0,0,1,1.087-4,2.973,2.973,0,0,1,4.03,1.08l8.245,14.67a0.973,0.973,0,0,1-.378,1.33,0.983,0.983,0,0,1-1.338-.38l-8.239-14.65a0.982,0.982,0,0,0-1.7.99l9.4,16.72a1.133,1.133,0,0,0,.218.26A0.977,0.977,0,0,1,952.784,2646.67Zm21.468,29.99a2.7,2.7,0,0,1-.487-0.04,2.936,2.936,0,0,1-2.424-3.38l1.59-9.49-3.344-1.48a0.98,0.98,0,1,1,.8-1.79l4.04,1.79a0.969,0.969,0,0,1,.57,1.05l-1.715,10.24a0.96,0.96,0,0,0,.17.73,0.942,0.942,0,0,0,.638.4,0.983,0.983,0,0,0,1.131-.8l1.967-11.74a0.97,0.97,0,0,0-.57-1.05l-6.056-2.68a0.98,0.98,0,1,1,.8-1.79l6.056,2.68a2.924,2.924,0,0,1,1.711,3.16l-1.967,11.74A2.935,2.935,0,0,1,974.252,2676.66Zm-21.121-10.38a1.027,1.027,0,0,1-.669-0.26l-5.761-5.33a0.989,0.989,0,0,1-.313-0.73,0.959,0.959,0,0,1,.323-0.71l5.864-5.28-0.937-10.01a3.43,3.43,0,0,1,3.416-3.49h8.892a3.418,3.418,0,0,1,3.421,3.4c0,0.04,0,.07,0,0.11l-0.909,8.71,5.177,2.16a0.981,0.981,0,0,1,.546,1.23l-2.288,6.51a0.969,0.969,0,0,1-.54.57,0.955,0.955,0,0,1-.793-0.01l-8.642-3.89-6.05,6.69a1.006,1.006,0,0,1-.687.33h-0.045Zm-4.3-6.3,4.243,3.93,5.863-6.49a0.989,0.989,0,0,1,1.137-.23l8.318,3.74,1.628-4.63-5-2.09a0.984,0.984,0,0,1-.6-1l0.978-9.38a1.45,1.45,0,0,0-1.454-1.4h-8.892a1.451,1.451,0,0,0-1.454,1.44l0.979,10.4a0.982,0.982,0,0,1-.319.82Zm30.34-33.2H939.833a0.98,0.98,0,1,1,0-1.96h39.333A0.98,0.98,0,1,1,979.166,2626.78Zm-39.333,7.82h-2.949a0.974,0.974,0,0,1-.984-0.97v-15.65a0.982,0.982,0,0,1,.984-0.98h2.949a0.982,0.982,0,0,1,.984.98v15.65A0.974,0.974,0,0,1,939.833,2634.6Zm-1.966-1.95h0.983v-13.69h-0.983v13.69Zm-0.983,1.95h-2.95a0.975,0.975,0,0,1-.984-0.97v-15.65a0.983,0.983,0,0,1,.984-0.98h2.95a0.982,0.982,0,0,1,.983.98v15.65A0.974,0.974,0,0,1,936.884,2634.6Zm-1.967-1.95H935.9v-13.69h-0.983v13.69Zm50.149,1.95h-2.95a0.974,0.974,0,0,1-.983-0.97v-15.65a0.982,0.982,0,0,1,.983-0.98h2.95a0.983,0.983,0,0,1,.984.98v15.65A0.975,0.975,0,0,1,985.066,2634.6Zm-1.966-1.95h0.983v-13.69H983.1v13.69Zm-0.984,1.95h-2.95a0.974,0.974,0,0,1-.983-0.97v-15.65a0.982,0.982,0,0,1,.983-0.98h2.95a0.983,0.983,0,0,1,.984.98v15.65A0.975,0.975,0,0,1,982.116,2634.6Zm-1.966-1.95h0.983v-13.69H980.15v13.69Zm-46.216-5.87h-2.95a0.98,0.98,0,1,1,0-1.96h2.95A0.98,0.98,0,1,1,933.934,2626.78Zm54.082,0h-2.95a0.98,0.98,0,1,1,0-1.96h2.95A0.98,0.98,0,1,1,988.016,2626.78Z" transform="translate(-930 -2617)"/>
</svg>
