<svg xmlns="http://www.w3.org/2000/svg" width="49" height="60.03" viewBox="0 0 49 60.03">
  <metadata><?xpacket begin="﻿" id="W5M0MpCehiHzreSzNTczkc9d"?>
<x:xmpmeta xmlns:x="adobe:ns:meta/" x:xmptk="Adobe XMP Core 5.6-c138 79.159824, 2016/09/14-01:09:01        ">
   <rdf:RDF xmlns:rdf="http://www.w3.org/1999/02/22-rdf-syntax-ns#">
      <rdf:Description rdf:about=""/>
   </rdf:RDF>
</x:xmpmeta>
                                                                                                    
                                                                                                    
                                                                                                    
                                                                                                    
                                                                                                    
                                                                                                    
                                                                                                    
                                                                                                    
                                                                                                    
                                                                                                    
                                                                                                    
                                                                                                    
                                                                                                    
                                                                                                    
                                                                                                    
                                                                                                    
                                                                                                    
                                                                                                    
                                                                                                    
                                                                                                    
                           
<?xpacket end="w"?></metadata>
<defs>
    <style>
      .cls-1 {
        fill: #1f1b1b;
        fill-rule: evenodd;
      }
    </style>
  </defs>
  <path class="cls-1" d="M602.266,2648.63h-2.573v-11.18a20.689,20.689,0,0,0-13.258-19.24,20.193,20.193,0,0,0-22.459,6.15,20.743,20.743,0,0,0-4.669,13.09v11.18h-2.573a1.748,1.748,0,0,0-1.734,1.76v20.48a6.042,6.042,0,1,0,12.082,0v-20.48a1.748,1.748,0,0,0-1.734-1.76h-2.573v-11.18a17.053,17.053,0,0,1,3.57-10.47,14.093,14.093,0,0,0,7.828,16.68,13.7,13.7,0,0,0,16.741-5.13,14.12,14.12,0,0,0,1.741-11.55,17.053,17.053,0,0,1,3.57,10.47v11.18h-2.573a1.748,1.748,0,0,0-1.734,1.76v20.48a6.042,6.042,0,1,0,12.082,0v-20.48A1.748,1.748,0,0,0,602.266,2648.63Zm-38.652,12.6h-5.146v-1.91h5.146v1.91Zm-2.573,12.25a2.594,2.594,0,0,1-2.573-2.61v-6.12h5.146v6.12A2.594,2.594,0,0,1,561.041,2673.48Zm2.573-17.68h-5.146v-3.65h5.146v3.65Zm15.886-14.56a10.348,10.348,0,0,1-9.623-6.85,10.556,10.556,0,0,1,3.085-11.5,10.17,10.17,0,0,1,11.778-.94,10.534,10.534,0,0,1,4.793,10.94A10.38,10.38,0,0,1,579.5,2641.24Zm15.885,18.08h5.147v1.91h-5.147v-1.91Zm5.147-7.17v3.65h-5.146v-3.65h5.146Zm-2.573,21.33a2.594,2.594,0,0,1-2.573-2.61v-6.12h5.146v6.12A2.6,2.6,0,0,1,597.959,2673.48Z" transform="translate(-555 -2616.97)"/>
</svg>
