<svg width="575" height="834" viewBox="0 0 575 834" fill="none" xmlns="http://www.w3.org/2000/svg">
<g clip-path="url(#clip0)">
<path d="M-200.999 940.872C-200.999 940.872 -115.209 966.831 -37.3581 894.446C80.9094 784.477 -46.9981 658.16 78.1435 528.445C172.216 430.933 282.166 507.717 391.143 406.946C448.501 353.906 548.142 272.446 488.143 150.946C427.872 28.8968 283.143 -58.5544 186.143 65.1917C87.4643 191.08 255.143 295.946 341.643 275.446C402.925 260.922 463.219 130.273 521.156 65.1916C552.451 30.0362 592.635 -15.3709 652.518 -13.5375C715.002 -11.6228 791.794 66.3498 804.114 85.4563" stroke="#6784FF" stroke-width="6" stroke-miterlimit="10" stroke-dasharray="12 12"/>
</g>
<defs>
<clipPath id="clip0">
<rect width="575" height="834" fill="white"/>
</clipPath>
</defs>
</svg>
