<svg width="920" height="920" viewBox="0 0 920 920" fill="none" xmlns="http://www.w3.org/2000/svg">
<g clip-path="url(#clip0)">
<path d="M784 784C962.94 605.06 962.94 314.94 784 136C605.06 -42.9403 314.94 -42.9402 136 136C-42.9403 314.94 -42.9403 605.06 136 784C314.94 962.94 605.06 962.94 784 784Z" stroke="white" stroke-width="2" stroke-miterlimit="10" stroke-dasharray="12.04 12.04"/>
<path d="M460.028 873.522C688.414 873.522 873.558 688.378 873.558 459.992C873.558 231.606 688.414 46.4619 460.028 46.4619C231.642 46.4619 46.498 231.606 46.498 459.992C46.498 688.378 231.642 873.522 460.028 873.522Z" stroke="white" stroke-width="1.3872" stroke-miterlimit="10"/>
<path d="M460.027 833.213C666.152 833.213 833.248 666.116 833.248 459.992C833.248 253.868 666.152 86.771 460.027 86.771C253.903 86.771 86.8066 253.868 86.8066 459.992C86.8066 666.116 253.903 833.213 460.027 833.213Z" stroke="white" stroke-width="1.252" stroke-miterlimit="10"/>
<path d="M460.028 814.548C655.844 814.548 814.585 655.808 814.585 459.991C814.585 264.175 655.844 105.434 460.028 105.434C264.211 105.434 105.471 264.175 105.471 459.991C105.471 655.808 264.211 814.548 460.028 814.548Z" stroke="white" stroke-width="1.1894" stroke-miterlimit="10"/>
<path d="M460.027 796.823C646.054 796.823 796.859 646.018 796.859 459.991C796.859 273.964 646.054 123.159 460.027 123.159C274 123.159 123.195 273.964 123.195 459.991C123.195 646.018 274 796.823 460.027 796.823Z" stroke="white" stroke-width="1.1299" stroke-miterlimit="10"/>
<path d="M460.031 779.972C636.752 779.972 780.012 636.712 780.012 459.991C780.012 283.271 636.752 140.011 460.031 140.011C283.311 140.011 140.051 283.271 140.051 459.991C140.051 636.712 283.311 779.972 460.031 779.972Z" stroke="white" stroke-width="1.0734" stroke-miterlimit="10"/>
<path d="M460.028 763.982C627.917 763.982 764.018 627.881 764.018 459.992C764.018 292.103 627.917 156.001 460.028 156.001C292.138 156.001 156.037 292.103 156.037 459.992C156.037 627.881 292.138 763.982 460.028 763.982Z" stroke="white" stroke-width="1.0198" stroke-miterlimit="10"/>
<path d="M460.029 748.776C619.52 748.776 748.813 619.483 748.813 459.991C748.813 300.5 619.52 171.207 460.029 171.207C300.537 171.207 171.244 300.5 171.244 459.991C171.244 619.483 300.537 748.776 460.029 748.776Z" stroke="white" stroke-width="0.9688" stroke-miterlimit="10"/>
<path d="M460.028 734.341C611.547 734.341 734.378 611.51 734.378 459.991C734.378 308.472 611.547 185.641 460.028 185.641C308.508 185.641 185.678 308.472 185.678 459.991C185.678 611.51 308.508 734.341 460.028 734.341Z" stroke="white" stroke-width="0.9203" stroke-miterlimit="10"/>
<path d="M460.03 720.626C603.974 720.626 720.664 603.936 720.664 459.991C720.664 316.047 603.974 199.356 460.03 199.356C316.085 199.356 199.395 316.047 199.395 459.991C199.395 603.936 316.085 720.626 460.03 720.626Z" stroke="white" stroke-width="0.8743" stroke-miterlimit="10"/>
<path d="M460.031 707.593C596.777 707.593 707.632 596.738 707.632 459.991C707.632 323.245 596.777 212.39 460.031 212.39C323.285 212.39 212.43 323.245 212.43 459.991C212.43 596.738 323.285 707.593 460.031 707.593Z" stroke="white" stroke-width="0.8306" stroke-miterlimit="10"/>
<path d="M626.324 626.326C718.184 534.467 718.184 385.533 626.325 293.674C534.465 201.814 385.531 201.814 293.672 293.674C201.813 385.533 201.813 534.467 293.672 626.326C385.531 718.186 534.465 718.186 626.324 626.326Z" stroke="white" stroke-width="0.7891" stroke-miterlimit="10" stroke-dasharray="11.98 11.98"/>
<path d="M460.032 683.453C583.447 683.453 683.494 583.406 683.494 459.991C683.494 336.577 583.447 236.529 460.032 236.529C336.618 236.529 236.57 336.577 236.57 459.991C236.57 583.406 336.618 683.453 460.032 683.453Z" stroke="white" stroke-width="0.7496" stroke-miterlimit="10"/>
<path d="M460.029 672.271C577.268 672.271 672.309 577.23 672.309 459.992C672.309 342.753 577.268 247.712 460.029 247.712C342.791 247.712 247.75 342.753 247.75 459.992C247.75 577.23 342.791 672.271 460.029 672.271Z" stroke="white" stroke-width="0.7121" stroke-miterlimit="10"/>
<path d="M460.03 661.666C571.412 661.666 661.705 571.373 661.705 459.991C661.705 348.609 571.412 258.316 460.03 258.316C348.648 258.316 258.355 348.609 258.355 459.991C258.355 571.373 348.648 661.666 460.03 661.666Z" stroke="white" stroke-width="0.6765" stroke-miterlimit="10"/>
<path d="M460.026 651.576C565.836 651.576 651.611 565.8 651.611 459.991C651.611 354.182 565.836 268.406 460.026 268.406C354.217 268.406 268.441 354.182 268.441 459.991C268.441 565.8 354.217 651.576 460.026 651.576Z" stroke="white" stroke-width="0.6427" stroke-miterlimit="10"/>
<path d="M460.032 642C560.553 642 642.041 560.512 642.041 459.991C642.041 359.471 560.553 277.982 460.032 277.982C359.512 277.982 278.023 359.471 278.023 459.991C278.023 560.512 359.512 642 460.032 642Z" stroke="white" stroke-width="0.6106" stroke-miterlimit="10"/>
<path d="M460.029 632.9C555.524 632.9 632.938 555.486 632.938 459.991C632.938 364.497 555.524 287.083 460.029 287.083C364.535 287.083 287.121 364.497 287.121 459.991C287.121 555.486 364.535 632.9 460.029 632.9Z" stroke="white" stroke-width="0.58" stroke-miterlimit="10"/>
<path d="M460.029 624.249C550.746 624.249 624.287 550.708 624.287 459.991C624.287 369.274 550.746 295.733 460.029 295.733C369.312 295.733 295.771 369.274 295.771 459.991C295.771 550.708 369.312 624.249 460.029 624.249Z" stroke="white" stroke-width="0.551" stroke-miterlimit="10"/>
<path d="M460.029 616.036C546.209 616.036 616.073 546.172 616.073 459.992C616.073 373.811 546.209 303.947 460.029 303.947C373.848 303.947 303.984 373.811 303.984 459.992C303.984 546.172 373.848 616.036 460.029 616.036Z" stroke="white" stroke-width="0.5235" stroke-miterlimit="10"/>
<path d="M460.031 608.234C541.903 608.234 608.273 541.863 608.273 459.992C608.273 378.12 541.903 311.75 460.031 311.75C378.159 311.75 311.789 378.12 311.789 459.992C311.789 541.863 378.159 608.234 460.031 608.234Z" stroke="white" stroke-width="0.4973" stroke-miterlimit="10"/>
<path d="M460.028 600.829C537.81 600.829 600.866 537.774 600.866 459.991C600.866 382.208 537.81 319.153 460.028 319.153C382.245 319.153 319.189 382.208 319.189 459.991C319.189 537.774 382.245 600.829 460.028 600.829Z" stroke="white" stroke-width="0.4724" stroke-miterlimit="10"/>
<path d="M460.029 593.786C533.921 593.786 593.823 533.884 593.823 459.991C593.823 386.099 533.921 326.197 460.029 326.197C386.136 326.197 326.234 386.099 326.234 459.991C326.234 533.884 386.136 593.786 460.029 593.786Z" stroke="white" stroke-width="0.4488" stroke-miterlimit="10"/>
<path d="M460.029 587.089C530.223 587.089 587.127 530.185 587.127 459.991C587.127 389.797 530.223 332.894 460.029 332.894C389.835 332.894 332.932 389.797 332.932 459.991C332.932 530.185 389.835 587.089 460.029 587.089Z" stroke="white" stroke-width="0.4264" stroke-miterlimit="10"/>
<path d="M460.031 580.739C526.718 580.739 580.779 526.678 580.779 459.991C580.779 393.304 526.718 339.243 460.031 339.243C393.344 339.243 339.283 393.304 339.283 459.991C339.283 526.678 393.344 580.739 460.031 580.739Z" stroke="white" stroke-width="0.4051" stroke-miterlimit="10"/>
<path d="M460.029 574.697C523.38 574.697 574.736 523.342 574.736 459.991C574.736 396.64 523.38 345.284 460.029 345.284C396.678 345.284 345.322 396.64 345.322 459.991C345.322 523.342 396.678 574.697 460.029 574.697Z" stroke="white" stroke-width="0.3848" stroke-miterlimit="10"/>
<path d="M460.029 568.965C520.213 568.965 569.003 520.176 569.003 459.992C569.003 399.807 520.213 351.018 460.029 351.018C399.844 351.018 351.055 399.807 351.055 459.992C351.055 520.176 399.844 568.965 460.029 568.965Z" stroke="white" stroke-width="0.3656" stroke-miterlimit="10"/>
<path d="M460.028 563.515C517.203 563.515 563.552 517.166 563.552 459.991C563.552 402.816 517.203 356.467 460.028 356.467C402.853 356.467 356.504 402.816 356.504 459.991C356.504 517.166 402.853 563.515 460.028 563.515Z" stroke="white" stroke-width="0.3473" stroke-miterlimit="10"/>
<path d="M460.027 558.335C514.341 558.335 558.371 514.305 558.371 459.991C558.371 405.678 514.341 361.647 460.027 361.647C405.714 361.647 361.684 405.678 361.684 459.991C361.684 514.305 405.714 558.335 460.027 558.335Z" stroke="white" stroke-width="0.3299" stroke-miterlimit="10"/>
<path d="M460.031 553.425C511.633 553.425 553.465 511.593 553.465 459.991C553.465 408.389 511.633 366.558 460.031 366.558C408.429 366.558 366.598 408.389 366.598 459.991C366.598 511.593 408.429 553.425 460.031 553.425Z" stroke="white" stroke-width="0.3134" stroke-miterlimit="10"/>
<path d="M460.027 548.746C509.045 548.746 548.782 509.009 548.782 459.991C548.782 410.973 509.045 371.236 460.027 371.236C411.008 371.236 371.271 410.973 371.271 459.991C371.271 509.009 411.008 548.746 460.027 548.746Z" stroke="white" stroke-width="0.2978" stroke-miterlimit="10"/>
<path d="M460.031 544.312C506.6 544.312 544.352 506.56 544.352 459.991C544.352 413.422 506.6 375.671 460.031 375.671C413.462 375.671 375.711 413.422 375.711 459.991C375.711 506.56 413.462 544.312 460.031 544.312Z" stroke="white" stroke-width="0.2829" stroke-miterlimit="10"/>
<path d="M460.03 540.096C504.271 540.096 540.134 504.232 540.134 459.992C540.134 415.751 504.271 379.887 460.03 379.887C415.79 379.887 379.926 415.751 379.926 459.992C379.926 504.232 415.79 540.096 460.03 540.096Z" stroke="white" stroke-width="0.2687" stroke-miterlimit="10"/>
<path d="M460.029 536.099C502.061 536.099 536.136 502.024 536.136 459.992C536.136 417.959 502.061 383.885 460.029 383.885C417.996 383.885 383.922 417.959 383.922 459.992C383.922 502.024 417.996 536.099 460.029 536.099Z" stroke="white" stroke-width="0.2553" stroke-miterlimit="10"/>
<path d="M460.031 532.294C499.962 532.294 532.333 499.923 532.333 459.992C532.333 420.06 499.962 387.689 460.031 387.689C420.099 387.689 387.729 420.06 387.729 459.992C387.729 499.923 420.099 532.294 460.031 532.294Z" stroke="white" stroke-width="0.2425" stroke-miterlimit="10"/>
<path d="M460.029 528.669C497.959 528.669 528.707 497.921 528.707 459.991C528.707 422.062 497.959 391.314 460.029 391.314C422.1 391.314 391.352 422.062 391.352 459.991C391.352 497.921 422.1 528.669 460.029 528.669Z" stroke="white" stroke-width="0.2304" stroke-miterlimit="10"/>
<path d="M460.031 525.236C496.065 525.236 525.276 496.025 525.276 459.991C525.276 423.957 496.065 394.745 460.031 394.745C423.997 394.745 394.785 423.957 394.785 459.991C394.785 496.025 423.997 525.236 460.031 525.236Z" stroke="white" stroke-width="0.2189" stroke-miterlimit="10"/>
<path d="M460.028 521.972C494.258 521.972 522.008 494.222 522.008 459.991C522.008 425.76 494.258 398.011 460.028 398.011C425.797 398.011 398.047 425.76 398.047 459.991C398.047 494.222 425.797 521.972 460.028 521.972Z" stroke="white" stroke-width="0.2079" stroke-miterlimit="10"/>
<path d="M460.029 518.874C492.55 518.874 518.912 492.511 518.912 459.991C518.912 427.471 492.55 401.108 460.029 401.108C427.509 401.108 401.146 427.471 401.146 459.991C401.146 492.511 427.509 518.874 460.029 518.874Z" stroke="white" stroke-width="0.1975" stroke-miterlimit="10"/>
<path d="M460.027 515.931C490.922 515.931 515.967 490.886 515.967 459.992C515.967 429.097 490.922 404.052 460.027 404.052C429.133 404.052 404.088 429.097 404.088 459.992C404.088 490.886 429.133 515.931 460.027 515.931Z" stroke="white" stroke-width="0.1877" stroke-miterlimit="10"/>
<path d="M460.029 513.141C489.383 513.141 513.179 489.345 513.179 459.991C513.179 430.637 489.383 406.841 460.029 406.841C430.675 406.841 406.879 430.637 406.879 459.991C406.879 489.345 430.675 513.141 460.029 513.141Z" stroke="white" stroke-width="0.1783" stroke-miterlimit="10"/>
<path d="M460.03 510.481C487.915 510.481 510.52 487.876 510.52 459.991C510.52 432.107 487.915 409.502 460.03 409.502C432.146 409.502 409.541 432.107 409.541 459.991C409.541 487.876 432.146 510.481 460.03 510.481Z" stroke="white" stroke-width="0.1694" stroke-miterlimit="10"/>
<path d="M460.03 503.282C483.939 503.282 503.321 483.9 503.321 459.991C503.321 436.082 483.939 416.7 460.03 416.7C436.121 416.7 416.738 436.082 416.738 459.991C416.738 483.9 436.121 503.282 460.03 503.282Z" stroke="white" stroke-width="0.1452" stroke-miterlimit="10"/>
</g>
<defs>
<clipPath id="clip0">
<rect width="920" height="920" fill="white"/>
</clipPath>
</defs>
</svg>
